<?xml version="1.0" encoding="utf-8"?>
<!-- Generator: Adobe Illustrator 21.0.2, SVG Export Plug-In . SVG Version: 6.00 Build 0)  -->
<svg version="1.1" baseProfile="tiny" id="Layer_1" xmlns="http://www.w3.org/2000/svg" xmlns:xlink="http://www.w3.org/1999/xlink"
	 x="0px" y="0px" viewBox="0 0 343 77" xml:space="preserve">
<g>
	<g>
		<path fill="#74428F" d="M91.5,20.5v-0.1C91.5,9.2,100,0,112.1,0c7.4,0,11.9,2.5,15.5,6.1l-5.5,6.4C119.1,9.7,116,8,112,8
			c-6.6,0-11.4,5.5-11.4,12.3v0.1c0,6.8,4.7,12.4,11.4,12.4c4.5,0,7.3-1.8,10.4-4.6l5.5,5.6c-4.1,4.3-8.6,7-16.2,7
			C100.1,40.8,91.5,31.8,91.5,20.5z"/>
		<path fill="#74428F" d="M148.3,0.4h8l16.9,39.7h-9.1l-3.6-8.8h-16.7l-3.6,8.8h-8.8L148.3,0.4z M157.5,23.6l-5.2-12.8L147,23.6
			H157.5z"/>
		<path fill="#74428F" d="M179.3,0.7h15.4c12.4,0,21,8.5,21,19.6v0.1c0,11.1-8.6,19.7-21,19.7h-15.4V0.7z M194.7,32.3
			c7.1,0,11.9-4.8,11.9-11.8v-0.1c0-7-4.8-11.9-11.9-11.9H188v23.8H194.7z"/>
		<path fill="#74428F" d="M223.4,0.7h8.7v15.6h16V0.7h8.7v39.4H248V24.3h-16v15.8h-8.7V0.7z"/>
		<path fill="#74428F" d="M279.7,0.4h8l16.9,39.7h-9.1l-3.6-8.8h-16.7l-3.6,8.8h-8.8L279.7,0.4z M288.8,23.6l-5.2-12.8l-5.2,12.8
			H288.8z"/>
		<path fill="#74428F" d="M306.4,20.5v-0.1C306.4,9.2,314.8,0,327,0c7.4,0,11.9,2.5,15.5,6.1l-5.5,6.4c-3-2.8-6.1-4.4-10.1-4.4
			c-6.6,0-11.4,5.5-11.4,12.3v0.1c0,6.8,4.7,12.4,11.4,12.4c4.5,0,7.3-1.8,10.4-4.6l5.5,5.6c-4.1,4.3-8.6,7-16.2,7
			C315,40.8,306.4,31.8,306.4,20.5z"/>
	</g>
	<g>
		<path fill="#74428F" d="M90,55.6L90,55.6c0-3,2.2-5.5,5.4-5.5c1.9,0,3.1,0.7,4.1,1.6l-1.2,1.4c-0.8-0.8-1.7-1.3-2.9-1.3
			c-2,0-3.5,1.7-3.5,3.7v0c0,2.1,1.5,3.7,3.5,3.7c1.3,0,2.1-0.5,3-1.4l1.2,1.2c-1.1,1.1-2.3,1.9-4.3,1.9C92.3,61,90,58.6,90,55.6z"
			/>
		<path fill="#74428F" d="M102,50.3h1.8v10.5H102V50.3z"/>
		<path fill="#74428F" d="M106.9,56.3v-6.1h1.8v6c0,2,1,3,2.7,3c1.6,0,2.6-1,2.6-2.9v-6.1h1.8v6c0,3.1-1.8,4.7-4.5,4.7
			C108.6,60.9,106.9,59.4,106.9,56.3z"/>
		<path fill="#74428F" d="M118.8,50.3h3.9c3.3,0,5.6,2.3,5.6,5.2v0c0,3-2.3,5.3-5.6,5.3h-3.9V50.3z M122.7,59.1
			c2.2,0,3.6-1.5,3.6-3.5v0c0-2.1-1.4-3.6-3.6-3.6h-2.1v7.1H122.7z"/>
		<path fill="#74428F" d="M133.9,50.2h1.7l4.6,10.6h-2l-1.1-2.5h-5l-1.1,2.5h-1.9L133.9,50.2z M136.5,56.6l-1.8-4.2l-1.8,4.2H136.5z
			"/>
		<path fill="#74428F" d="M142.3,50.3h3.9c3.3,0,5.6,2.3,5.6,5.2v0c0,3-2.3,5.3-5.6,5.3h-3.9V50.3z M146.3,59.1
			c2.2,0,3.6-1.5,3.6-3.5v0c0-2.1-1.4-3.6-3.6-3.6h-2.1v7.1H146.3z"/>
		<path fill="#74428F" d="M157.4,50.2h1.7l4.6,10.6h-2l-1.1-2.5h-5l-1.1,2.5h-1.9L157.4,50.2z M160.1,56.6l-1.8-4.2l-1.8,4.2H160.1z
			"/>
		<path fill="#74428F" d="M165.9,50.3h1.7l5.6,7.3v-7.3h1.8v10.5h-1.5l-5.8-7.5v7.5h-1.8V50.3z"/>
		<path fill="#74428F" d="M177.7,55.6L177.7,55.6c0-3,2.3-5.5,5.5-5.5s5.5,2.4,5.5,5.4v0c0,3-2.3,5.4-5.5,5.4S177.7,58.5,177.7,55.6
			z M186.7,55.6L186.7,55.6c0-2.1-1.5-3.8-3.6-3.8s-3.5,1.7-3.5,3.7v0c0,2,1.5,3.7,3.6,3.7C185.3,59.3,186.7,57.6,186.7,55.6z"/>
		<path fill="#74428F" d="M190.5,59.3l1.1-1.3c1,0.9,2,1.4,3.3,1.4c1.1,0,1.9-0.5,1.9-1.3v0c0-0.8-0.4-1.2-2.4-1.6
			c-2.2-0.5-3.5-1.2-3.5-3.1v0c0-1.8,1.5-3,3.6-3c1.5,0,2.7,0.5,3.8,1.3l-1,1.4c-0.9-0.7-1.9-1.1-2.9-1.1c-1.1,0-1.7,0.6-1.7,1.2v0
			c0,0.8,0.5,1.2,2.5,1.7c2.2,0.5,3.4,1.3,3.4,3.1v0c0,2-1.5,3.1-3.8,3.1C193.2,60.9,191.7,60.4,190.5,59.3z"/>
		<path fill="#74428F" d="M206,50.3h7.8v1.7h-5.9v2.7h5.3v1.7h-5.3v2.8h6v1.7H206V50.3z"/>
		<path fill="#74428F" d="M216.4,50.3h1.7l5.6,7.3v-7.3h1.8v10.5H224l-5.8-7.5v7.5h-1.8V50.3z"/>
		<path fill="#74428F" d="M237.2,50.2h1.7l4.6,10.6h-2l-1.1-2.5h-5l-1.1,2.5h-1.9L237.2,50.2z M239.8,56.6l-1.8-4.2l-1.8,4.2H239.8z
			"/>
		<path fill="#74428F" d="M245.7,50.3h4.1c2.4,0,4,1.4,4,3.5v0c0,2.4-1.9,3.6-4.2,3.6h-2.1v3.4h-1.8V50.3z M249.7,55.7
			c1.4,0,2.3-0.8,2.3-1.9v0c0-1.2-0.9-1.9-2.3-1.9h-2.1v3.8H249.7z"/>
		<path fill="#74428F" d="M255.6,55.6L255.6,55.6c0-3,2.3-5.5,5.5-5.5c3.2,0,5.5,2.4,5.5,5.4v0c0,3-2.3,5.4-5.5,5.4
			C257.8,61,255.6,58.5,255.6,55.6z M264.6,55.6L264.6,55.6c0-2.1-1.5-3.8-3.6-3.8s-3.5,1.7-3.5,3.7v0c0,2,1.5,3.7,3.6,3.7
			C263.2,59.3,264.6,57.6,264.6,55.6z"/>
		<path fill="#74428F" d="M271.4,56.6l-4.2-6.4h2.2l2.9,4.7l3-4.7h2.1l-4.2,6.3v4.2h-1.9V56.6z"/>
		<path fill="#74428F" d="M278,55.6L278,55.6c0-3,2.3-5.5,5.5-5.5c3.2,0,5.5,2.4,5.5,5.4v0c0,3-2.3,5.4-5.5,5.4
			C280.2,61,278,58.5,278,55.6z M287,55.6L287,55.6c0-2.1-1.5-3.8-3.6-3.8c-2.1,0-3.5,1.7-3.5,3.7v0c0,2,1.5,3.7,3.6,3.7
			C285.6,59.3,287,57.6,287,55.6z"/>
		<path fill="#74428F" d="M300.1,50.2h1.7l4.6,10.6h-2l-1.1-2.5h-5l-1.1,2.5h-1.9L300.1,50.2z M302.8,56.6l-1.8-4.2l-1.8,4.2H302.8z
			"/>
		<path fill="#74428F" d="M313.5,50.3h1.8v8.8h5.5v1.7h-7.4V50.3z"/>
		<path fill="#74428F" d="M322.1,55.6L322.1,55.6c0-3,2.3-5.5,5.5-5.5c3.2,0,5.5,2.4,5.5,5.4v0c0,3-2.3,5.4-5.5,5.4
			C324.3,61,322.1,58.5,322.1,55.6z M331.1,55.6L331.1,55.6c0-2.1-1.5-3.8-3.6-3.8s-3.5,1.7-3.5,3.7v0c0,2,1.5,3.7,3.6,3.7
			C329.7,59.3,331.1,57.6,331.1,55.6z"/>
		<path fill="#74428F" d="M334.9,59.3l1.1-1.3c1,0.9,2,1.4,3.3,1.4c1.1,0,1.9-0.5,1.9-1.3v0c0-0.8-0.4-1.2-2.4-1.6
			c-2.2-0.5-3.5-1.2-3.5-3.1v0c0-1.8,1.5-3,3.6-3c1.5,0,2.7,0.5,3.8,1.3l-1,1.4c-0.9-0.7-1.9-1.1-2.9-1.1c-1.1,0-1.7,0.6-1.7,1.2v0
			c0,0.8,0.5,1.2,2.5,1.7c2.2,0.5,3.4,1.3,3.4,3.1v0c0,2-1.5,3.1-3.8,3.1C337.6,60.9,336.1,60.4,334.9,59.3z"/>
		<path fill="#74428F" d="M90.5,65.9h3.9c3.3,0,5.6,2.3,5.6,5.2v0c0,3-2.3,5.3-5.6,5.3h-3.9V65.9z M94.4,74.7c2.2,0,3.6-1.5,3.6-3.5
			v0c0-2.1-1.4-3.6-3.6-3.6h-2.1v7.1H94.4z"/>
		<path fill="#74428F" d="M102.6,65.9h7.8v1.7h-5.9v2.7h5.3V72h-5.3v2.8h6v1.7h-7.9V65.9z"/>
		<path fill="#74428F" d="M113,65.9h4.7c1.3,0,2.4,0.4,3,1.1c0.6,0.6,0.9,1.4,0.9,2.3v0c0,1.7-1,2.8-2.5,3.2l2.8,4h-2.2l-2.6-3.7
			h-2.3v3.7H113V65.9z M117.6,71.1c1.3,0,2.2-0.7,2.2-1.8v0c0-1.1-0.8-1.7-2.2-1.7h-2.7v3.5H117.6z"/>
		<path fill="#74428F" d="M124.2,65.9h7.8v1.7h-5.9v2.7h5.3V72h-5.3v2.8h6v1.7h-7.9V65.9z"/>
		<path fill="#74428F" d="M134.2,71.2L134.2,71.2c0-3,2.2-5.5,5.4-5.5c1.9,0,3.1,0.7,4.1,1.6l-1.2,1.4c-0.8-0.8-1.7-1.3-2.9-1.3
			c-2,0-3.5,1.7-3.5,3.7v0c0,2.1,1.5,3.7,3.5,3.7c1.3,0,2.1-0.5,3-1.4l1.2,1.2c-1.1,1.1-2.3,1.9-4.3,1.9
			C136.4,76.6,134.2,74.2,134.2,71.2z"/>
		<path fill="#74428F" d="M146.1,65.9h1.8v4.4h5v-4.4h1.8v10.5h-1.8V72h-5v4.4h-1.8V65.9z"/>
		<path fill="#74428F" d="M157.3,71.2L157.3,71.2c0-3,2.3-5.5,5.5-5.5c3.2,0,5.5,2.4,5.5,5.4v0c0,3-2.3,5.4-5.5,5.4
			C159.6,76.6,157.3,74.2,157.3,71.2z M166.4,71.2L166.4,71.2c0-2.1-1.5-3.8-3.6-3.8c-2.1,0-3.5,1.7-3.5,3.7v0c0,2,1.5,3.7,3.6,3.7
			C164.9,74.9,166.4,73.2,166.4,71.2z"/>
		<path fill="#74428F" d="M170.1,74.9l1.1-1.3c1,0.9,2,1.4,3.3,1.4c1.1,0,1.9-0.5,1.9-1.3v0c0-0.8-0.4-1.2-2.4-1.6
			c-2.2-0.5-3.5-1.2-3.5-3.1v0c0-1.8,1.5-3,3.6-3c1.5,0,2.7,0.5,3.8,1.3l-1,1.4c-0.9-0.7-1.9-1.1-2.9-1.1c-1.1,0-1.7,0.6-1.7,1.2v0
			c0,0.8,0.5,1.2,2.5,1.7c2.2,0.5,3.4,1.3,3.4,3.1v0c0,2-1.5,3.1-3.8,3.1C172.9,76.6,171.4,76,170.1,74.9z"/>
		<path fill="#74428F" d="M185.7,65.9h1.8v4.4h5v-4.4h1.8v10.5h-1.8V72h-5v4.4h-1.8V65.9z"/>
		<path fill="#74428F" d="M197.3,72v-6.1h1.8v6c0,2,1,3,2.7,3c1.6,0,2.6-1,2.6-2.9v-6.1h1.8v6c0,3.1-1.8,4.7-4.5,4.7
			C199,76.6,197.3,75,197.3,72z"/>
		<path fill="#74428F" d="M209.1,65.9h2l3.2,5l3.2-5h2v10.5h-1.8v-7.5l-3.3,5h-0.1l-3.3-4.9v7.5h-1.8V65.9z"/>
		<path fill="#74428F" d="M226.2,65.8h1.7l4.6,10.6h-2l-1.1-2.5h-5l-1.1,2.5h-1.9L226.2,65.8z M228.9,72.3l-1.8-4.2l-1.8,4.2H228.9z
			"/>
		<path fill="#74428F" d="M234.7,65.9h1.7l5.6,7.3v-7.3h1.8v10.5h-1.5l-5.8-7.5v7.5h-1.8V65.9z"/>
		<path fill="#74428F" d="M246.5,71.2L246.5,71.2c0-3,2.3-5.5,5.5-5.5c3.2,0,5.5,2.4,5.5,5.4v0c0,3-2.3,5.4-5.5,5.4
			S246.5,74.2,246.5,71.2z M255.5,71.2L255.5,71.2c0-2.1-1.5-3.8-3.6-3.8s-3.5,1.7-3.5,3.7v0c0,2,1.5,3.7,3.6,3.7
			C254.1,74.9,255.5,73.2,255.5,71.2z"/>
		<path fill="#74428F" d="M259.3,74.9l1.1-1.3c1,0.9,2,1.4,3.3,1.4c1.1,0,1.9-0.5,1.9-1.3v0c0-0.8-0.4-1.2-2.4-1.6
			c-2.2-0.5-3.5-1.2-3.5-3.1v0c0-1.8,1.5-3,3.6-3c1.5,0,2.7,0.5,3.8,1.3l-1,1.4c-0.9-0.7-1.9-1.1-2.9-1.1c-1.1,0-1.7,0.6-1.7,1.2v0
			c0,0.8,0.5,1.2,2.5,1.7c2.2,0.5,3.4,1.3,3.4,3.1v0c0,2-1.5,3.1-3.8,3.1C262.1,76.6,260.5,76,259.3,74.9z"/>
		<path fill="#74428F" d="M269.1,77.8c0.9-0.2,1.4-0.6,1.3-1.4h-0.8v-2.1h2v1.7c0,1.7-0.8,2.4-2.3,2.5L269.1,77.8z"/>
		<path fill="#74428F" d="M282.9,65.8h1.7l4.6,10.6h-2l-1.1-2.5h-5l-1.1,2.5h-1.9L282.9,65.8z M285.5,72.3l-1.8-4.2l-1.8,4.2H285.5z
			"/>
		<path fill="#74428F" d="M291.1,74.4h2v2.1h-2V74.4z"/>
		<path fill="#74428F" d="M294.7,71.2L294.7,71.2c0-3,2.2-5.5,5.4-5.5c1.9,0,3.1,0.7,4.1,1.6l-1.2,1.4c-0.8-0.8-1.7-1.3-2.9-1.3
			c-2,0-3.5,1.7-3.5,3.7v0c0,2.1,1.5,3.7,3.5,3.7c1.3,0,2.1-0.5,3-1.4l1.2,1.2c-1.1,1.1-2.3,1.9-4.3,1.9
			C297,76.6,294.7,74.2,294.7,71.2z"/>
		<path fill="#74428F" d="M306.3,74.4h2v2.1h-2V74.4z"/>
	</g>
	<g>
		<path fill="#D7DE26" d="M39.7,52.3c-6.8,0-12.3,5.5-12.3,12.3c0,6.8,5.5,12.3,12.3,12.3c0.6,0,1.2,0,1.8-0.1h35.3V52.4H41.4
			C40.8,52.4,40.3,52.3,39.7,52.3z"/>
		<circle fill="#D7DE26" cx="12.1" cy="64.3" r="12.1"/>
	</g>
	<g>
		<path fill="#8EC441" d="M50.7,32.8c-4.7-4.6-12.4-4.4-17.1,0.4c-4.7,4.8-4.8,12.5-0.1,17.1c0.4,0.4,0.8,0.8,1.3,1.1l24.5,24
			l17-17.3l-24.5-24C51.5,33.6,51.1,33.2,50.7,32.8z"/>
		<ellipse transform="matrix(0.7 -0.7141 0.7141 0.7 -9.23 23.3154)" fill="#8EC441" cx="23.1" cy="22.6" rx="12.1" ry="11.8"/>
	</g>
	<g>
		<path fill="#109347" d="M76.8,39.7c0-6.8-5.5-12.3-12.3-12.3c-6.8,0-12.3,5.5-12.3,12.3c0,0.6,0,1.2,0.1,1.8v35.3h24.3V41.4
			C76.8,40.9,76.8,40.3,76.8,39.7z"/>
		<circle fill="#109347" cx="64.8" cy="12.1" r="12.1"/>
	</g>
</g>
</svg>
