<svg height="200" width="200" fill="#90c54c" xmlns="http://www.w3.org/2000/svg" xmlns:xlink="http://www.w3.org/1999/xlink" version="1.1" x="0px" y="0px" viewBox="0 0 100 100" enable-background="new 0 0 100 100" xml:space="preserve"><g><circle fill="#90c54c" cx="65.7" cy="17.9" r="1.7"/><path fill="#90c54c" d="M83,75.4l-9.8-17h2.5c1,0,1.7-0.8,1.7-1.7c0-1-0.8-1.7-1.7-1.7H55.5c-0.6-1.7-1.9-3.1-3.7-3.7v-9.9h1   c7.7,0,14-6.3,14-14l0-0.9c0-0.9,0.7-1.4,1.4-1.7c1.7-0.7,6.5-2.8,6.7-2.9c0.5-0.2,0.8-0.6,1-1.1c0.2-0.5,0.1-1-0.2-1.4   c-0.3-0.5-3.2-5.1-4.8-6.8c-1.5-1.5-3.4-2.3-5.4-2.3c-2,0-3.9,0.9-5.2,2.4c-0.9,1.1-1.5,2-2,3c-0.2,0.4-0.5,0.8-0.7,1.1   C54.8,14.2,43.8,3.9,42.4,2.5c-1-1-2.4-1.3-3.7-0.7c-1.3,0.5-2.2,1.8-2.2,3.2v3c-2.4-1.6-4.9-3.4-7.4-5.4c-0.7-0.6-1.5-0.9-2.4-0.9   c-2.1,0-3.7,1.6-3.7,3.7v10.5c0,6.6,3.2,12.2,8.3,14.4c0,0,0.1,0,0.1,0l3.4,1.3c-1.3,0.3-2.8,0.5-4.4,0.7c-0.9,0.1-1.6,1-1.5,1.9   c0.7,7.1,4.6,11.2,7.7,13.5c3.4,2.4,6.6,3.2,6.7,3.2c0.1,0,0.3,0,0.4,0c0.7,0,1.3-0.4,1.6-1.1l3-7v8.3c-1.7,0.6-3.1,1.9-3.7,3.7   H24.3c-1,0-1.7,0.8-1.7,1.7c0,1,0.8,1.7,1.7,1.7h2.6l-9.8,17c-0.2,0.4-0.3,0.9-0.2,1.3s0.4,0.8,0.8,1.1c3.6,2,7.8,3.1,12,3.1   s8.3-1.1,12-3.1c0.4-0.2,0.7-0.6,0.8-1.1c0.1-0.5,0.1-0.9-0.2-1.3l-9.8-17h12.1c0.6,1.7,1.9,3.1,3.7,3.7V86H35.4   c-4.1,0-7.4,3.3-7.4,7.4v3.3c0,1,0.8,1.7,1.7,1.7h40.6c1,0,1.7-0.8,1.7-1.7v-3.3c0-4.1-3.3-7.4-7.4-7.4H51.8V62.1   c1.7-0.6,3.1-1.9,3.7-3.7h12.1l-9.8,17c-0.2,0.4-0.3,0.9-0.2,1.3c0.1,0.5,0.4,0.8,0.8,1.1c3.6,2,7.8,3.1,12,3.1   c4.2,0,8.3-1.1,12-3.1c0.4-0.2,0.7-0.6,0.8-1.1C83.3,76.3,83.2,75.8,83,75.4z M29.8,77.4c-3,0-5.9-0.6-8.7-1.9l8.7-15l8.7,15   C35.7,76.8,32.7,77.4,29.8,77.4z M68.6,93.4V95H31.5v-1.6c0-2.2,1.8-3.9,3.9-3.9h29.3C66.9,89.5,68.6,91.3,68.6,93.4z M40.1,5.1   C42,7,52.8,17.1,55.3,19.5c0,0,0,0,0,0c-1.9-1.2-3.9-2.4-6-3.6c-2.9-1.7-6-3.5-9.2-5.6L40.1,5.1z M46.2,38.9l-3.5,8.2   C40,46,34.1,43,32.6,35.6c4.8-0.7,8.4-1.9,8.5-2c0.7-0.2,1.2-0.9,1.2-1.6c0-0.7-0.4-1.4-1.1-1.7l-8.5-3.2c-4.5-2-6.1-7.3-6.1-11.2   V5.4c0-0.1,0-0.2,0.2-0.2c0.1,0,0.2,0,0.3,0.1c7.3,5.8,14.3,9.9,20.5,13.6c2.5,1.5,4.9,2.9,7,4.3c0.6,0.4,1.5,0.4,2-0.1   c2.7-2.2,3.7-4,4.7-5.6c0.5-0.8,1-1.7,1.7-2.5c0.7-0.8,1.6-1.2,2.5-1.2c1,0,2,0.5,2.9,1.3c0.8,0.8,2.2,2.8,3.2,4.4   c-1.6,0.7-3.8,1.6-4.8,2c-2.2,0.9-3.5,2.8-3.5,4.9l0,0.9c0,5.8-4.7,10.5-10.5,10.5h-5C47.1,37.9,46.5,38.3,46.2,38.9z M70.4,77.4   c-3,0-5.9-0.6-8.7-1.9l8.7-15l8.7,15C76.3,76.8,73.4,77.4,70.4,77.4z"/></g></svg>