<svg height="200" width="200" fill="#90c54c" xmlns="http://www.w3.org/2000/svg" xmlns:xlink="http://www.w3.org/1999/xlink" version="1.1" x="0px" y="0px" viewBox="0 0 100 100" enable-background="new 0 0 100 100" xml:space="preserve"><path fill="#90c54c" d="M97.2,47l-6.4-4.6l0.9-1.4c0.2-0.4,0.3-0.8,0.2-1.2c-0.1-0.4-0.3-0.8-0.7-1l-3.4-2.1  c-0.7-0.5-1.7-0.2-2.2,0.5l-0.6,1l-0.4-0.3L78,23.2c-0.6-1.3-1.5-2.3-2.7-3.1L73,18.8l6.6-6.6c0.6-0.6,0.6-1.6,0-2.2  c-0.6-0.6-1.6-0.6-2.2,0l-7.2,7.2l-2.1-1.3c-1.6-1.3-3.9-1.4-5.7-0.4l-7.7,4.5c-0.4,0.3-0.8,0.6-1.2,1L44,7.1  c-0.5-0.7-1.4-0.9-2.2-0.4L8.1,29.1c-0.7,0.5-0.9,1.4-0.5,2.1l5.2,8.8c-0.6-0.1-1.3-0.1-1.9,0.1c-2.4,0.7-3.8,3.2-3.2,5.6l1,4.2  c-1.1-0.4-2.2-0.4-3.2,0.1C3.5,51,2.4,53.4,3,56c1.4,6.1,3.1,12.9,4.2,15.7c2.6,6.2,9.4,11,11.4,12.3l0.1,0.6l-0.9,0.2  c-0.9,0.2-1.4,1-1.2,1.9l0.8,3.9c0.1,0.4,0.3,0.8,0.7,1c0.3,0.2,0.6,0.3,0.9,0.3c0.1,0,0.2,0,0.3,0l1-0.2l0.2,0.7  c0.2,0.7,0.8,1.2,1.5,1.2c0.1,0,0.2,0,0.3,0c0.8-0.2,1.4-1,1.2-1.9L23.4,91l14.3-3l1,3.5c0.2,0.8,1.1,1.3,2,1.1  c0.8-0.2,1.3-1.1,1.1-2l-1-3.2l1-0.2c0.4-0.1,0.8-0.3,1-0.7c0.2-0.3,0.3-0.8,0.2-1.2L43,84.9l0.4-0.1c0.9,1.4,2.4,2.3,4.1,2.3  c0.8,0,1.6-0.2,2.4-0.6l2.3-1.3c1.1-0.6,1.9-1.7,2.3-2.9c0.2-0.8,0.2-1.6,0.1-2.4l2.3-1.2c0.9,0.7,1.9,1.1,3,1.1  c1.2,0,2.4-0.5,3.3-1.3l1.9-1.8c0.9-0.9,1.5-2.1,1.5-3.4c0-0.8-0.1-1.6-0.5-2.3l1.8-1.6c0.7,0.4,1.5,0.6,2.2,0.6  c1.2,0,2.4-0.5,3.3-1.3l1.9-1.8c0.9-0.9,1.5-2.1,1.5-3.4c0-1-0.3-2-0.9-2.9l2.2-2.7l0.8,0.5c0.3,0.2,0.5,0.2,0.8,0.2  c0.1,0,0.2,0,0.3,0c0.4-0.1,0.8-0.3,1-0.7l1.2-1.9l6.3,5c0.3,0.2,0.6,0.3,1,0.3c0.5,0,0.9-0.2,1.2-0.6c0.5-0.7,0.4-1.7-0.3-2.2  l-6.5-5.2l5.3-8.4l6.2,4.5c0.3,0.2,0.6,0.3,0.9,0.3c0.5,0,1-0.2,1.3-0.7C98.1,48.5,97.9,47.5,97.2,47z M73.3,58.8  c-0.5-0.1-0.9-0.2-1.4-0.2c-1.2,0-2.4,0.5-3.3,1.3l-1.9,1.8c-1.5,1.4-1.9,3.7-1.1,5.5l-1.9,1.7c-0.6-0.3-1.3-0.5-2.1-0.5  c-1.2,0-2.4,0.5-3.3,1.3l-1.9,1.8c-1.3,1.2-1.8,3-1.4,4.6l-2.3,1.2c-0.9-0.7-1.9-1.1-3.1-1.1c-0.8,0-1.6,0.2-2.4,0.6l-2.3,1.3  c-1.1,0.6-1.9,1.7-2.3,2.9c-0.1,0.3-0.1,0.5-0.1,0.8l-0.4,0.1l-0.1-0.5c-0.2-0.9-1-1.4-1.9-1.2l-1,0.2c1.2-1.5,3.1-4.2,4.6-7.4  c0.1,0,0.3-0.1,0.4-0.2l29.7-19.9c0.7-0.5,0.9-1.4,0.5-2.1L74,49.8c0.1,0,0.1,0,0.2,0l2.3,1.9L75,54.2c-0.4,0.7-0.3,1.6,0.4,2.1  L73.3,58.8z M73.7,22.9c0.7,0.4,1.2,1,1.5,1.7l6.8,15c0.1,0.2,0.3,0.5,0.5,0.6l0.9,0.7L78.3,49l-2.5-2c0,0,0,0,0,0  c0,0-0.1-0.1-0.1-0.1c0,0-0.1,0-0.1-0.1c0,0-0.1,0-0.1-0.1c0,0-0.1,0-0.1,0c0,0-0.1,0-0.1,0c-0.1,0-0.1,0-0.2,0c0,0,0,0-0.1,0  c-8.2,0-11.5-9.1-11.7-9.5l-2.8-8.1c-0.2-0.6-0.2-1.3,0.1-1.9c0.3-0.6,0.8-1.1,1.4-1.3c1.3-0.4,2.7,0.2,3.2,1.5  c0,0.1,0.1,0.2,0.1,0.2l3,5.5c0.2,0.3,0.5,0.6,0.8,0.7l2,0.7c0.8,0.3,1.7-0.1,2-1c0.3-0.8-0.1-1.7-1-2l-1.4-0.5l-2.7-4.9  c-0.2-0.5-0.5-1-0.9-1.5l3.7-3.7L73.7,22.9z M58.4,33.4l1.3,3.6l-0.1,1.7c0,0.7-0.5,1.2-1.2,1.2c-0.7,0-1.3-0.5-1.4-1.2L56.8,35  L58.4,33.4z M56.4,22.6l7.7-4.5c0.7-0.4,1.6-0.3,2.2,0.2c0.1,0,0.1,0.1,0.2,0.1l1.5,0.9l-3.6,3.6c-1.1-0.4-2.4-0.4-3.6,0  c-1.4,0.5-2.6,1.5-3.2,2.9c-0.6,1.3-0.7,2.8-0.3,4.2l-0.8,0.8c-0.8,0.8-2,0.8-2.8,0c-0.6-0.6-0.8-1.5-0.4-2.2l2.3-5.2  C55.7,23.1,56,22.8,56.4,22.6z M42.3,10.2l9.6,13.7l-1.6,3.5c-0.9,2-0.4,4.3,1.1,5.8c0.5,0.5,1,0.8,1.6,1L46.4,41  c-0.6,0.6-0.6,1.6,0,2.2c0.3,0.3,0.7,0.5,1.1,0.5s0.8-0.2,1.1-0.5l5.3-5.3l0.1,1.1c0.2,2.3,2.1,4.1,4.4,4.1c0.1,0,0.2,0,0.2,0  c1.3-0.1,2.4-0.7,3.2-1.6c1.5,2.5,4.1,5.8,8.1,7.4l1.3,2.2l-25.4,17c0.1-0.6,0.2-1.2,0.3-1.8c0,0,0-0.1,0-0.1l0.6-10.5  c0.3-2.5-1.4-4.9-3.8-5.6c-2.5-0.7-5.1,0.8-5.9,3.4l-0.4,1.2l-2.3-14.2c-0.4-2.6-2.8-4.5-5.3-4.2c-1.8,0.2-3.3,1.4-4,3.1l-0.1-0.5  c-0.6-2.6-3.1-4.2-5.6-3.6c-1.8,0.4-3.1,1.7-3.5,3.4l-4.6-7.8L42.3,10.2z M21.6,82.7c-0.1-0.4-0.4-0.8-0.7-1c-0.1,0-8.1-5-10.7-11.2  c-1.2-2.8-3-10.9-4.1-15.2C5.9,54.4,6,53.3,6.8,53c0.4-0.2,0.7-0.1,1,0c0.4,0.1,0.6,0.4,0.8,0.8l3.7,10.6c0.3,0.8,1.1,1.2,1.9,1  c0.8-0.2,1.3-1.1,1.1-1.9L10.8,45c-0.2-0.8,0.2-1.7,1-1.9c0.7-0.2,1.4,0.2,1.7,1l5.2,15.8c0.3,0.8,1.1,1.2,1.9,1  c0.8-0.2,1.3-1,1.2-1.8l-3.1-18.9c-0.1-0.9,0.4-1.8,1.2-1.9c0.8-0.2,1.6,0.4,1.8,1.3L26,58c0.2,0.8,1,1.3,1.8,1.2  c0.8-0.1,1.4-0.9,1.3-1.7l-1.4-16c-0.1-1,0.6-1.9,1.5-2c0.9-0.1,1.7,0.6,1.9,1.6l3.4,20.8c0.1,0.7,0.7,1.3,1.4,1.3  c0.7,0,1.4-0.4,1.6-1.1l2.3-7.7c0.3-1,1.2-1.5,2.1-1.3c0.9,0.2,1.5,1.2,1.4,2.2c0,0,0,0.1,0,0.1L42.8,66c-0.7,6.6-6.8,13.4-6.8,13.5  c-0.4,0.4-0.5,1-0.3,1.5l0,0.1L21.9,84L21.6,82.7z M50.6,82.5l-2.3,1.3C48,83.9,47.8,84,47.5,84c0,0-0.1,0-0.1,0  c0.5-0.3,0.7-0.9,0.6-1.5c-0.1-0.8-0.9-1.4-1.7-1.3c0.1-0.1,0.2-0.2,0.4-0.3l2.3-1.3c0.1,0,0.2-0.1,0.3-0.1  c-0.3,0.5-0.4,1.1-0.1,1.7c0.3,0.5,0.8,0.8,1.4,0.8c0.3,0,0.5-0.1,0.7-0.2l0,0C51.1,82,50.9,82.3,50.6,82.5z M62.8,74.4l-1.9,1.8  c-0.3,0.2-0.6,0.4-0.9,0.4c0.2-0.4,0.2-1,0-1.4c-0.4-0.7-1.1-0.9-1.8-0.8c0.1-0.3,0.2-0.5,0.4-0.7l1.9-1.8c0.1-0.1,0.2-0.1,0.2-0.2  c-0.2,0.5-0.1,1.2,0.3,1.6c0.3,0.3,0.7,0.5,1.2,0.5c0.4,0,0.8-0.1,1.1-0.4l0,0C63.3,73.8,63.1,74.2,62.8,74.4z M73,64.6l-1.9,1.8  c-0.2,0.2-0.4,0.3-0.7,0.4c0.3-0.6,0.2-1.2-0.3-1.7c-0.5-0.5-1.2-0.6-1.8-0.4c0.1-0.3,0.2-0.5,0.5-0.8l1.9-1.8  c0.1-0.1,0.3-0.2,0.5-0.3c0,0.5,0.2,0.9,0.6,1.3c0.3,0.2,0.7,0.4,1,0.4c0.3,0,0.5-0.1,0.8-0.2c0,0.1,0,0.1,0,0.2  C73.6,63.9,73.4,64.3,73,64.6z"/></svg>