<svg height="200" width="200" fill="#90c54c" xmlns="http://www.w3.org/2000/svg" xmlns:xlink="http://www.w3.org/1999/xlink" version="1.1" x="0px" y="0px" viewBox="0 0 91 91" enable-background="new 0 0 91 91" xml:space="preserve"><g><path d="M17.15,48.232c0.75-0.538,0.92-1.58,0.383-2.33s-1.582-0.923-2.33-0.384c-1.375,0.987-2.58,0.204-2.816,0.032   c-0.723-0.557-1.762-0.43-2.328,0.293c-0.57,0.725-0.445,1.774,0.279,2.345c0.674,0.529,1.963,1.151,3.482,1.151   C14.863,49.34,16.014,49.047,17.15,48.232z"/><path d="M11.203,44.668c1.014,0,1.838-0.822,1.838-1.832c0-1.012-0.824-1.835-1.838-1.835c-1.01,0-1.832,0.823-1.832,1.835   C9.371,43.846,10.193,44.668,11.203,44.668z"/><path d="M16.342,44.668c1.008,0,1.83-0.822,1.83-1.832c0-1.012-0.822-1.835-1.83-1.835c-1.012,0-1.834,0.823-1.834,1.835   C14.508,43.846,15.33,44.668,16.342,44.668z"/><path d="M4.174,72.55c0.02,0,0.039,0,0.059,0c0.963-0.014,1.602-0.388,2.049-0.832V80.3c0,2.535,2.059,4.596,4.59,4.596   c1.115,0,2.125-0.414,2.922-1.076c0.795,0.662,1.803,1.076,2.918,1.076c2.535,0,4.6-2.061,4.6-4.596V62.339   c0.434,0.042,0.91,0.07,1.424,0.07c2.605,0,6.012-0.719,7.928-4.016c0.025-0.045,0.025-0.096,0.047-0.143   c0.248-0.248,0.482-0.557,0.707-0.941c0.398-0.686,1.123-2.573,2.369-5.854c0.211-0.551,0.451-1.184,0.701-1.836v29.852   c0,2.99,2.432,5.424,5.422,5.424c1.459,0,2.775-0.584,3.752-1.521c0.975,0.938,2.293,1.521,3.75,1.521   c2.992,0,5.428-2.434,5.428-5.424V53.315c0.623,2.494,0.984,3.729,1.334,4.328l0.152,0.27c0.461,0.828,1.236,2.214,3.238,2.248   c0.02,0,0.039,0,0.059,0c0.385,0,0.74-0.094,1.078-0.23c0.604,0.405,1.299,0.57,1.994,0.443c0.963-0.18,1.846-0.883,2.482-1.98   c0.285-0.488,0.691-1.409,1.275-2.795L62.76,67.231c-0.068,0.48,0.072,0.966,0.391,1.333c0.316,0.366,0.777,0.577,1.262,0.577   h0.779v10.33c0,2.99,2.434,5.424,5.424,5.424c1.457,0,2.777-0.584,3.754-1.521c0.975,0.938,2.295,1.521,3.752,1.521   c2.992,0,5.428-2.434,5.428-5.424v-10.33h1.678c0.508,0,0.988-0.231,1.307-0.629c0.316-0.396,0.436-0.917,0.32-1.413l-1.467-6.425   c0.348,0.134,0.75,0.223,1.223,0.23c0.021,0,0.041,0,0.061,0c1.18,0,2.211-0.602,2.902-1.699c2.58-4.086,0.51-15.825-0.846-18.552   c-1.193-2.383-3.014-4.417-5.205-5.924c2.791-2.545,4.475-6.176,4.475-10.081c0-7.53-6.123-13.655-13.652-13.655   c-7.531,0-13.658,6.125-13.658,13.655c0,3.945,1.693,7.57,4.463,10.095c-2.186,1.507-3.998,3.539-5.18,5.915   c-0.105,0.21-0.236,0.414-0.367,0.623c-0.572-2.535-1.178-4.563-1.586-5.381c-1.189-2.384-3.012-4.421-5.203-5.929   c2.789-2.546,4.475-6.176,4.475-10.082c0-7.529-6.125-13.653-13.654-13.653S29.977,12.361,29.977,19.89   c0,3.947,1.693,7.573,4.461,10.098c-2.184,1.509-3.996,3.54-5.176,5.914c-0.672,1.351-3.957,10.454-4.5,16.794   c-0.281,0.165-1.354,0.413-3.359,0.048c2.104-2.037,3.371-4.857,3.371-7.89c0-6.065-4.936-11-11.002-11   c-6.064,0-10.998,4.935-10.998,11c0,3.014,1.24,5.784,3.268,7.8c-1.588,1.182-2.902,2.727-3.789,4.502   c-1.01,2.021-2.727,10.656-0.688,13.887C2.18,72.017,3.105,72.55,4.174,72.55z M72.703,79.431c0,0.016-0.008,0.025-0.008,0.041   c0,0.01,0.004,0.018,0.004,0.027c-0.016,1.135-0.943,2.057-2.084,2.057c-1.148,0-2.082-0.936-2.082-2.084v-10.33h4.17V79.431z    M80.207,79.472c0,1.148-0.936,2.084-2.086,2.084c-1.141,0-2.064-0.922-2.08-2.057c0-0.01,0.004-0.018,0.004-0.027v-10.33h4.162   V79.472z M64.025,24.648c0-5.688,4.629-10.315,10.318-10.315c5.688,0,10.313,4.627,10.313,10.315c0,4.075-2.402,7.776-6.123,9.431   c-0.844,0.374-1.223,1.361-0.848,2.204c0.375,0.842,1.361,1.227,2.203,0.847c0.223-0.099,0.42-0.23,0.633-0.339   c0.391,0.21,0.764,0.444,1.129,0.695c-3.969,3.645-10.145,3.578-13.988-0.265c-0.027-0.027-0.063-0.036-0.092-0.06   c0.191-0.118,0.375-0.245,0.572-0.353c0.865,0.442,1.783,0.805,2.756,1.057c0.141,0.037,0.283,0.054,0.422,0.054   c0.74,0,1.418-0.499,1.613-1.25c0.232-0.893-0.303-1.805-1.197-2.036C67.197,33.454,64.025,29.349,64.025,24.648z M62.326,43.234   c0.238-0.377,0.451-0.723,0.633-1.09c0.539-1.083,1.256-2.067,2.084-2.947c0.076,0.134,0.143,0.271,0.258,0.385   c2.623,2.624,6.068,3.935,9.518,3.935c3.359,0,6.713-1.256,9.313-3.748c0.615,0.735,1.176,1.517,1.605,2.376   c1.568,3.15,2.477,14.342,0.906,15.452c-0.078-0.07-0.238-0.359-0.357-0.57l-0.174-0.307c-0.252-0.495-0.633-2.739-0.883-4.225   c-0.635-3.754-1.018-5.626-1.771-6.573c-0.363-0.455-0.92-0.646-1.463-0.604c-0.041-0.003-0.076-0.024-0.117-0.024   c-0.922,0-1.67,0.748-1.67,1.671v5.842c0,0.125,0.016,0.249,0.043,0.371l2.883,12.625H66.344l1.854-12.756   c0.01-0.08,0.018-0.16,0.018-0.24v-5.842c0-0.71-0.449-1.343-1.119-1.577c-0.672-0.236-1.416-0.02-1.857,0.535   c-0.717,0.897-1.756,3.327-3.258,6.931c-0.287,0.686-0.588,1.406-0.861,2.047c0.154-2.262-0.059-5.055-0.451-7.82   C61.213,45.023,61.803,44.068,62.326,43.234z M32.252,37.39c1.121-2.255,2.961-4.128,5.182-5.336   c0.867,0.441,1.785,0.803,2.756,1.055c0.141,0.036,0.281,0.053,0.42,0.053c0.742,0,1.42-0.499,1.617-1.251   c0.23-0.893-0.307-1.805-1.199-2.036c-4.539-1.176-7.711-5.282-7.711-9.985c0-5.687,4.629-10.313,10.316-10.313   s10.314,4.626,10.314,10.313c0,4.076-2.404,7.777-6.127,9.43c-0.842,0.374-1.223,1.361-0.848,2.204   c0.373,0.844,1.361,1.224,2.203,0.849c0.223-0.099,0.422-0.23,0.637-0.34c2.23,1.208,4.082,3.09,5.215,5.357   c1.393,2.805,3.818,16.754,2.461,19.32c-0.078-0.122-0.172-0.289-0.248-0.426l-0.17-0.301c-0.293-0.574-1.043-3.655-1.59-5.906   c-1.338-5.489-2-7.992-2.734-8.912c-0.367-0.46-0.934-0.655-1.484-0.609c-0.033-0.002-0.061-0.02-0.096-0.02   c-0.064,0-0.119,0.03-0.182,0.038c-0.006,0.001-0.012,0.002-0.018,0.002c-0.822,0.104-1.471,0.779-1.471,1.63v37.265   c0,1.148-0.936,2.084-2.086,2.084c-1.141,0-2.066-0.924-2.08-2.063c0-0.008,0.004-0.014,0.004-0.021V55.876   c0-0.922-0.748-1.67-1.67-1.67c-0.924,0-1.67,0.748-1.67,1.67v23.563c0,0.012-0.008,0.021-0.008,0.033   c0,0.008,0.004,0.014,0.004,0.021c-0.014,1.139-0.939,2.063-2.082,2.063c-1.146,0-2.082-0.936-2.082-2.084V41.857   c0-0.922-0.748-1.67-1.67-1.67c-0.578,0-1.064,0.313-1.363,0.761c-0.086,0.072-0.184,0.124-0.256,0.215   c-0.701,0.876-1.77,3.577-3.873,9.105c-0.826,2.175-1.855,4.881-2.135,5.359c-0.072,0.126-0.121,0.195-0.127,0.219   c-0.047,0.008-0.131,0.02-0.279,0.027C27.139,53.423,30.461,40.983,32.252,37.39z M5.24,58.646c0.82-1.641,2.146-3.002,3.74-3.908   c0.641,0.313,1.307,0.582,2.018,0.768c0.143,0.036,0.283,0.055,0.422,0.055c0.742,0,1.42-0.5,1.615-1.25   c0.232-0.894-0.303-1.805-1.195-2.037c-3.371-0.878-5.727-3.928-5.727-7.419c0-4.224,3.436-7.661,7.658-7.661   c4.225,0,7.662,3.437,7.662,7.661c0,3.027-1.787,5.776-4.549,7.005c-0.004,0-0.006,0.002-0.008,0.004   c-0.199,0.09-0.379,0.217-0.531,0.377c-0.15,0.16-0.268,0.35-0.344,0.553c-0.002,0.002-0.004,0.004-0.004,0.006   c-0.023,0.059-0.014,0.118-0.029,0.178c-0.039,0.15-0.078,0.301-0.072,0.457c0.004,0.16,0.053,0.311,0.102,0.459   c0.018,0.057,0.012,0.115,0.037,0.17c0,0.003,0.004,0.004,0.004,0.006c0.09,0.199,0.217,0.381,0.377,0.531   c0.162,0.152,0.35,0.268,0.553,0.346c0.002,0,0.004,0.003,0.006,0.004c2.389,0.895,4.545,1.342,6.311,1.342   c0.563,0,1.068-0.062,1.547-0.152c0.113,0.669,0.285,1.264,0.566,1.709c0.139,0.221,0.297,0.417,0.473,0.588   c-2.457,1.176-5.754,0.336-5.795,0.326c-0.07-0.02-0.143-0.004-0.213-0.014c-0.076-0.01-0.145-0.045-0.223-0.045   c-0.043,0-0.078,0.021-0.119,0.025c-0.105,0.007-0.201,0.033-0.303,0.06c-0.111,0.03-0.221,0.06-0.324,0.11   c-0.086,0.044-0.156,0.102-0.234,0.16c-0.094,0.068-0.184,0.135-0.26,0.223c-0.066,0.074-0.113,0.159-0.166,0.245   c-0.061,0.101-0.117,0.198-0.154,0.311c-0.014,0.036-0.041,0.063-0.051,0.101c-0.021,0.074-0.006,0.146-0.016,0.221   c-0.01,0.073-0.043,0.139-0.043,0.215V80.3c0,0.693-0.566,1.256-1.26,1.256c-0.678,0-1.225-0.543-1.246-1.219   c0-0.012,0.004-0.023,0.004-0.037V70.242c0-0.922-0.748-1.67-1.67-1.67s-1.67,0.748-1.67,1.67v10.001   c0,0.02-0.012,0.037-0.012,0.057c0,0.014,0.004,0.025,0.004,0.037c-0.021,0.674-0.57,1.219-1.25,1.219   c-0.689,0-1.25-0.563-1.25-1.256V61.958c0-0.922-0.748-1.67-1.67-1.67c-0.559,0-1.027,0.291-1.332,0.711   c-0.074,0.064-0.16,0.107-0.223,0.188c-0.67,0.84-0.99,2.364-1.455,4.781c-0.186,0.964-0.467,2.422-0.635,2.762l-0.104,0.18   C3.535,67.03,4.238,60.653,5.24,58.646z"/><path d="M42.467,49.019c0.324,0.318,0.746,0.478,1.168,0.478s0.844-0.159,1.168-0.476l3.221-3.151   c0.443-0.434,0.609-1.074,0.436-1.668l-3.113-10.505c-0.209-0.704-0.854-1.188-1.588-1.195c-0.004,0-0.01,0-0.014,0   c-0.729,0-1.373,0.471-1.594,1.166l-3.324,10.505c-0.188,0.6-0.025,1.256,0.426,1.697L42.467,49.019z M43.691,39.872l1.277,4.314   l-1.332,1.304l-1.316-1.288L43.691,39.872z"/><path d="M47.693,23.844c0.75-0.537,0.92-1.581,0.383-2.33c-0.537-0.75-1.58-0.921-2.33-0.383c-2.094,1.501-3.963,0.198-4.178,0.036   c-0.725-0.56-1.766-0.432-2.334,0.288c-0.57,0.724-0.445,1.774,0.279,2.345c0.805,0.634,2.348,1.379,4.17,1.379   C44.938,25.179,46.324,24.827,47.693,23.844z"/><path d="M40.334,19.179c1.039,0,1.883-0.843,1.883-1.879c0-1.039-0.844-1.884-1.883-1.884c-1.035,0-1.879,0.845-1.879,1.884   C38.455,18.335,39.299,19.179,40.334,19.179z"/><path d="M46.93,19.179c1.035,0,1.879-0.843,1.879-1.879c0-1.039-0.844-1.884-1.879-1.884c-1.037,0-1.881,0.845-1.881,1.884   C45.049,18.335,45.893,19.179,46.93,19.179z"/><path d="M69.943,26.214c-0.57,0.725-0.445,1.775,0.279,2.345c0.807,0.634,2.35,1.378,4.172,1.378c1.254,0,2.639-0.353,4.01-1.334   c0.748-0.538,0.922-1.581,0.383-2.331c-0.537-0.748-1.576-0.922-2.33-0.383c-2.092,1.502-3.961,0.198-4.18,0.035   C71.549,25.363,70.51,25.494,69.943,26.214z"/><path d="M71.041,23.936c1.039,0,1.885-0.843,1.885-1.88c0-1.038-0.846-1.881-1.885-1.881c-1.035,0-1.879,0.843-1.879,1.881   C69.162,23.093,70.006,23.936,71.041,23.936z"/><path d="M77.637,23.936c1.037,0,1.885-0.843,1.885-1.88c0-1.038-0.848-1.881-1.885-1.881c-1.035,0-1.877,0.843-1.877,1.881   C75.76,23.093,76.602,23.936,77.637,23.936z"/><path d="M7.617,24.404c1.377,1.462,3,2.846,5.189,4.412c0.268,0.167,0.678,0.292,0.992,0.292c0.348,0,0.822-0.175,1.105-0.377   c1.867-1.332,3.408-2.623,4.715-3.952c0.764-0.781,1.633-1.744,2.289-2.98c0.316-0.598,0.676-1.409,0.652-2.392   c-0.047-1.875-0.828-3.489-2.256-4.67c-1.805-1.493-4.695-1.482-6.504-0.028c-1.135-0.917-2.617-1.333-4.139-1.056   c-1.551,0.282-2.818,1.166-3.67,2.559c-1.49,2.444-0.959,4.444-0.252,5.691C6.215,22.74,6.809,23.531,7.617,24.404z M8.842,17.951   c0.355-0.58,0.807-0.901,1.418-1.013c0.113-0.02,0.225-0.031,0.336-0.031c0.674,0,1.277,0.384,1.646,1.086   c0.002,0.007,0.08,0.153,0.084,0.16c0.295,0.551,0.826,0.879,1.502,0.881c0.625-0.012,1.193-0.372,1.469-0.935   c0.137-0.278,0.277-0.486,0.455-0.661c0.609-0.619,1.754-0.683,2.424-0.13c0.689,0.571,1.023,1.265,1.047,2.178   c0.004,0.208-0.141,0.51-0.266,0.748c-0.455,0.857-1.127,1.596-1.723,2.204c-0.963,0.98-2.084,1.949-3.439,2.964   c-1.508-1.133-2.713-2.191-3.736-3.28c-0.621-0.669-1.068-1.262-1.412-1.869C8.344,19.723,8.158,19.074,8.842,17.951z"/></g></svg>